<svg xmlns="http://www.w3.org/2000/svg" width="16" height="16"><path fill="#D0021B" fill-rule="evenodd" d="M15.004 13.775a.212.212 0 0 1-.213.211H12.88a.212.212 0 0 1-.212-.21V7.814c0-.117.096-.21.212-.21h1.912c.117 0 .212.093.213.21v5.96zM1.454 8.592c.43-.73-.596-1.082.292-1.764 1.116-.859 1.042-.726 3.463-.753.378-.004.853.039.727-.748-.492-3.156.32-3.742.859-3.89 1.136-.31-.24.984 1.184 3.407.125.214.503.458.758.87.527.849 1.03 2.187 1.47 2.187h1.802v5.376c-1.021-.08-2.476-.195-2.84-.225-.572-.047-1.048.344-1.902.344-.758 0-1.242.466-3.823.073a1.34 1.34 0 0 1-.91-1.316c.102-.437-1.14-.78-.87-1.576.316-.935-.811-.961-.21-1.985z"/></svg>