<svg xmlns="http://www.w3.org/2000/svg" width="16" height="16"><path fill="#F9BA53" d="M14.25 5a.748.748 0 0 1 .75.75v4a.748.748 0 0 1-.75.75H14V14a1.495 1.495 0 0 1-1.5 1.5h-9A1.494 1.494 0 0 1 2 14v-3.5h-.25A.748.748 0 0 1 1 9.75v-4A.748.748 0 0 1 1.75 5h.875A2.65 2.65 0 0 1 2 3.25a2.642 2.642 0 0 1 .813-1.938A2.643 2.643 0 0 1 4.75.5a2.994 2.994 0 0 1 1.719.53A6.766 6.766 0 0 1 8 2.688 6.766 6.766 0 0 1 9.531 1.03 2.992 2.992 0 0 1 11.25.5a2.645 2.645 0 0 1 1.938.812A2.649 2.649 0 0 1 14 3.25 2.65 2.65 0 0 1 13.375 5zm-5.625-.594l-.063.094h2.688a1.23 1.23 0 0 0 1.25-1.25A1.23 1.23 0 0 0 11.25 2a1.329 1.329 0 0 0-.656.156 2.61 2.61 0 0 0-.797.672 16.805 16.805 0 0 0-1.172 1.578zM4.75 2A1.23 1.23 0 0 0 3.5 3.25 1.23 1.23 0 0 0 4.75 4.5h2.687l-.062-.094a16.985 16.985 0 0 0-1.172-1.578 2.621 2.621 0 0 0-.797-.672A1.33 1.33 0 0 0 4.75 2zM3.5 14h3.75V6.5H2.5V9h4v1.5h-3zm10-5V6.5H8.75V14h3.75v-3.5h-3V9z"/></svg>