<svg xmlns="http://www.w3.org/2000/svg" width="16" height="16"><path fill="#5E48A2" d="M4.34 7.8A3.13 3.13 0 0 1 1 4.638a3.15 3.15 0 0 1 3.34-3.2 3.188 3.188 0 1 1 0 6.362zm.387 6.533h-1.66l8.225-12.704h1.68zm6.894.229A3.185 3.185 0 1 1 11.62 8.2a3.187 3.187 0 1 1 0 6.362zM4.34 6.048a1.285 1.285 0 0 0 1.332-1.41A1.297 1.297 0 0 0 4.34 3.191a1.28 1.28 0 0 0-1.294 1.447 1.267 1.267 0 0 0 1.294 1.41zm7.28 6.761a1.275 1.275 0 0 0 1.332-1.41 1.297 1.297 0 0 0-1.332-1.447 1.27 1.27 0 0 0-1.294 1.448 1.248 1.248 0 0 0 1.294 1.41z"/></svg>