<svg xmlns="http://www.w3.org/2000/svg" width="16" height="16"><path fill="#2CC08D" d="M11.985 10.117l1.262 4.71-.14.037-2.077-.374-1.612 1.363-.016.004-1.263-4.714 1.29.382 1.068-1.039 1.462-.289zm-7.944.08l1.462.29 1.068 1.038 1.34-.397-1.265 4.729-.016-.004-1.612-1.363-2.077.374-.14-.037zM8 10.755l-1.337.396-.999-.972-1.368-.27-.433-1.325-1.085-.875.232-1.375-.554-1.279.844-1.108.104-1.39 1.263-.59.737-1.183 1.393.065L8 .143l1.203.705 1.393-.065.737 1.183 1.263.59.104 1.39.844 1.11-.554 1.278.232 1.375-1.085.875-.433 1.325-1.368.27-1 .972z"/></svg>